<svg width="20" height="21" viewBox="0 0 20 21" fill="none" xmlns="http://www.w3.org/2000/svg">
<path d="M17.8221 9.31257V14.392C17.8221 17.7784 16.9932 18.6249 13.6775 18.6249H5.38827C2.07258 18.6249 1.24365 17.7784 1.24365 14.392V5.92625C1.24365 2.53994 2.07258 1.69336 5.38827 1.69336H6.63166C7.87504 1.69336 8.14859 2.06585 8.62108 2.70925L9.86446 4.40241C10.1795 4.8257 10.3618 5.07968 11.1907 5.07968H13.6775C16.9932 5.07968 17.8221 5.92625 17.8221 9.31257Z" stroke="#5C5967" stroke-miterlimit="10"/>
<path d="M6.63135 1.69336H14.0917C15.7495 1.69336 16.5784 2.53994 16.5784 4.2331V5.40138" stroke="#5C5967" stroke-miterlimit="10" stroke-linecap="round" stroke-linejoin="round"/>
<path d="M11.6051 12.6987H7.46045" stroke="#5C5967" stroke-miterlimit="10" stroke-linecap="round" stroke-linejoin="round"/>
</svg>
